<svg data-v-423bf9ae="" xmlns="http://www.w3.org/2000/svg" viewBox="0 0 43.51177593759254 60" class="font"><!----><!----><!----><g data-v-423bf9ae="" id="0cee02e1-e75f-415e-a292-6fbc7420685b" fill="#67BF6B" transform="matrix(4.282655176286797,0,0,4.282655176286797,1.6433222782552548e-8,0.04282582929386791)"><path d="M4.34 1.37L3.09 6.92L5.84 6.92L4.34 1.37ZM2.63 0.07L2.63-0.01L2.63-0.01Q2.88 0.01 3.19 0.03L3.19 0.03L3.19 0.03Q3.46 0.06 3.82 0.06L3.82 0.06L3.82 0.06Q4.19 0.07 4.63 0.07L4.63 0.07L4.63 0.07Q5.08 0.07 5.51 0.06L5.51 0.06L5.51 0.06Q5.94 0.06 6.27 0.03L6.27 0.03L6.27 0.03Q6.66 0.01 7.01-0.01L7.01-0.01L7.01 0.07L6.09 0.22L6.09 0.22Q6.75 3.95 7.38 6.87L7.38 6.87L7.38 6.87Q7.64 8.13 7.94 9.34L7.94 9.34L7.94 9.34Q8.23 10.54 8.51 11.49L8.51 11.49L8.51 11.49Q8.79 12.45 9.06 13.05L9.06 13.05L9.06 13.05Q9.32 13.65 9.55 13.69L9.55 13.69L9.55 13.69Q9.69 13.72 9.80 13.74L9.80 13.74L9.80 13.74Q9.91 13.76 10.00 13.79L10.00 13.79L10.00 13.79Q10.09 13.82 10.16 13.85L10.16 13.85L10.16 14L10.16 14Q9.93 13.97 9.66 13.93L9.66 13.93L9.66 13.93Q9.42 13.90 9.11 13.87L9.11 13.87L9.11 13.87Q8.81 13.85 8.46 13.85L8.46 13.85L8.46 13.85Q8.02 13.85 7.72 13.87L7.72 13.87L7.72 13.87Q7.42 13.90 7.22 13.93L7.22 13.93L7.22 13.93Q7 13.97 6.86 14L6.86 14L6.86 13.85L7.31 13.69L6.09 8.01L2.94 8.01L2.94 8.01Q2.94 7.98 2.88 8.39L2.88 8.39L2.88 8.39Q2.83 8.79 2.77 9.41L2.77 9.41L2.77 9.41Q2.70 10.02 2.65 10.76L2.65 10.76L2.65 10.76Q2.60 11.49 2.62 12.14L2.62 12.14L2.62 12.14Q2.63 12.78 2.72 13.22L2.72 13.22L2.72 13.22Q2.80 13.66 3.02 13.71L3.02 13.71L3.02 13.71Q3.30 13.76 3.43 13.79L3.43 13.79L3.43 13.79Q3.56 13.82 3.60 13.83L3.60 13.83L3.60 13.83Q3.65 13.85 3.61 13.85L3.61 13.85L3.61 14L3.61 14Q3.36 13.97 3.07 13.93L3.07 13.93L3.07 13.93Q2.81 13.90 2.48 13.87L2.48 13.87L2.48 13.87Q2.16 13.85 1.78 13.85L1.78 13.85L1.78 13.85Q1.43 13.85 1.11 13.87L1.11 13.87L1.11 13.87Q0.78 13.90 0.55 13.93L0.55 13.93L0.55 13.93Q0.25 13.97 0 14L0 14L0 13.85L0.69 13.69L0.69 13.69Q1.83 9.95 2.63 7.01L2.63 7.01L2.63 7.01Q2.97 5.75 3.27 4.55L3.27 4.55L3.27 4.55Q3.57 3.35 3.75 2.39L3.75 2.39L3.75 2.39Q3.92 1.44 3.95 0.85L3.95 0.85L3.95 0.85Q3.98 0.25 3.77 0.22L3.77 0.22L3.77 0.22Q3.36 0.20 3.14 0.17L3.14 0.17L3.14 0.17Q2.91 0.14 2.80 0.11L2.80 0.11L2.80 0.11Q2.66 0.08 2.63 0.07L2.63 0.07Z"></path></g><!----><!----></svg>