<svg width="20" height="20" viewBox="0 0 20 20" fill="none" xmlns="http://www.w3.org/2000/svg">
<path d="M3.373 2.51001C5.1997 0.88939 7.55803 -0.00383547 10 1.23802e-05C15.523 1.23802e-05 20 4.47701 20 10C20.0033 12.0439 19.3772 14.0393 18.207 15.715L15.5 10H18C18 8.40937 17.5259 6.85482 16.6381 5.53496C15.7504 4.2151 14.4893 3.18985 13.016 2.59017C11.5428 1.99049 9.92416 1.84362 8.367 2.16831C6.80985 2.493 5.38484 3.27451 4.274 4.41301L3.374 2.51101L3.373 2.51001ZM16.627 17.49C14.8003 19.1106 12.442 20.0039 10 20C4.477 20 0 15.523 0 10C0 7.87501 0.663 5.90501 1.793 4.28501L4.5 10H2C1.99997 11.5907 2.47412 13.1452 3.36188 14.4651C4.24964 15.7849 5.5107 16.8102 6.98397 17.4099C8.45725 18.0095 10.0758 18.1564 11.633 17.8317C13.1901 17.507 14.6152 16.7255 15.726 15.587L16.626 17.489L16.627 17.49ZM6.5 12H12C12.1326 12 12.2598 11.9473 12.3536 11.8536C12.4473 11.7598 12.5 11.6326 12.5 11.5C12.5 11.3674 12.4473 11.2402 12.3536 11.1465C12.2598 11.0527 12.1326 11 12 11H8C7.33696 11 6.70107 10.7366 6.23223 10.2678C5.76339 9.79894 5.5 9.16305 5.5 8.50001C5.5 7.83697 5.76339 7.20109 6.23223 6.73225C6.70107 6.2634 7.33696 6.00001 8 6.00001H9V5.00001H11V6.00001H13.5V8.00001H8C7.86739 8.00001 7.74021 8.05269 7.64645 8.14646C7.55268 8.24023 7.5 8.3674 7.5 8.50001C7.5 8.63262 7.55268 8.7598 7.64645 8.85357C7.74021 8.94733 7.86739 9.00001 8 9.00001H12C12.663 9.00001 13.2989 9.2634 13.7678 9.73225C14.2366 10.2011 14.5 10.837 14.5 11.5C14.5 12.1631 14.2366 12.7989 13.7678 13.2678C13.2989 13.7366 12.663 14 12 14H11V15H9V14H6.5V12Z" fill="#F5F5F5"/>
</svg>
